<?xml version="1.0" encoding="UTF-8"?>
<svg id="Calque_1" data-name="Calque 1" xmlns="http://www.w3.org/2000/svg" viewBox="0 0 1208 391.47">
  <defs>
    <style>
      .cls-1 {
        fill: #80d8d0;
      }

      .cls-2 {
        fill: none;
        stroke: #80d8d0;
        stroke-miterlimit: 10;
        stroke-width: 5px;
      }
    </style>
  </defs>
  <g>
    <path fill="#ffffff" d="m99.76,154.97v-55.25c0-1.45.27-2.68.8-3.68.53-1.01,1.21-1.86,2.03-2.55.82-.69,1.71-1.2,2.69-1.51.98-.31,1.87-.47,2.69-.47h23.23c3.21,0,6.23.3,9.07.9,2.83.6,5.32,1.62,7.46,3.07,2.14,1.45,3.84,3.39,5.1,5.81,1.26,2.42,1.89,5.43,1.89,9.02,0,2.71-.68,5.16-2.03,7.37-1.35,2.2-3.23,3.97-5.62,5.29,2.83,1.13,5.05,3.07,6.66,5.81,1.61,2.74,2.41,5.59,2.41,8.55,0,3.65-.65,6.74-1.94,9.26-1.29,2.52-3.04,4.58-5.24,6.19-2.2,1.61-4.77,2.77-7.7,3.49-2.93.72-6.03,1.09-9.3,1.09h-29.84c-.63,0-1.18-.24-1.65-.71-.47-.47-.71-1.02-.71-1.65Zm29.47-37.4c2.14,0,3.87-.58,5.19-1.75,1.32-1.16,1.98-2.85,1.98-5.05s-.68-3.86-2.03-4.96c-1.35-1.1-3.07-1.65-5.15-1.65h-17c1.45,0,2.68.52,3.68,1.56,1.01,1.04,1.51,2.19,1.51,3.45v5.67c0,.57.25,1.17.76,1.79.5.63,1.19.94,2.08.94h8.97Zm.85,27.01c2.27,0,4.11-.63,5.52-1.89,1.42-1.26,2.12-3.05,2.12-5.38s-.72-4.08-2.17-5.43c-1.45-1.35-3.27-2.03-5.48-2.03h-17.85c1.45,0,2.68.52,3.68,1.56,1.01,1.04,1.51,2.19,1.51,3.45v6.89c0,.63.24,1.26.71,1.89.47.63,1.18.94,2.12.94h9.82Z"/>
    <path fill="#ffffff" d="m166.62,155.07v-55.25c0-2.39.82-4.36,2.46-5.9,1.64-1.54,3.56-2.31,5.76-2.31h38.53c.69,0,1.27.24,1.75.71.47.47.71,1.05.71,1.75v9.35c0,.69-.22,1.23-.66,1.61-.44.44-1.04.66-1.79.66h-34.85c1.51,0,2.75.54,3.73,1.61.98,1.07,1.46,2.24,1.46,3.49v3.97c0,.69.24,1.35.71,1.98.47.63,1.18.94,2.13.94h20.59c.69,0,1.27.24,1.75.71.47.47.71,1.05.71,1.75v8.5c0,.69-.24,1.27-.71,1.75s-1.05.71-1.75.71h-28.62c1.45,0,2.68.51,3.68,1.51,1.01,1.01,1.51,2.14,1.51,3.4v4.44c0,.69.25,1.35.76,1.98.5.63,1.2.94,2.08.94h27.58c1.64,0,2.46.82,2.46,2.46v9.26c0,.76-.24,1.34-.71,1.75-.47.41-1.05.61-1.75.61h-45.14c-.63,0-1.18-.24-1.65-.71-.47-.47-.71-1.02-.71-1.65Z"/>
    <path fill="#ffffff" d="m274.37,158.56c-9,0-16.07-2.17-21.2-6.52-5.13-4.34-7.85-10.7-8.17-19.08-.06-1.7-.09-4.47-.09-8.31s.03-6.74.09-8.5c.31-8.18,3.07-14.5,8.26-18.93,5.19-4.44,12.23-6.66,21.11-6.66,5.6,0,10.62.91,15.06,2.74,4.44,1.83,7.95,4.47,10.53,7.93,2.58,3.46,3.93,7.56,4.06,12.28,0,.57-.21,1.04-.61,1.42-.41.38-.9.57-1.46.57h-13.41c-.88,0-1.53-.17-1.94-.52-.41-.34-.77-.99-1.09-1.94-.88-3.08-2.22-5.24-4.01-6.47-1.79-1.23-4.17-1.84-7.13-1.84-7.12,0-10.8,3.97-11.05,11.9-.06,1.7-.09,4.31-.09,7.84s.03,6.2.09,8.03c.25,7.93,3.93,11.9,11.05,11.9,2.9,0,5.27-.63,7.13-1.89,1.86-1.26,3.19-3.4,4.01-6.42.25-.94.6-1.59,1.04-1.94.44-.35,1.1-.52,1.98-.52h13.41c.57,0,1.05.19,1.46.57.41.38.61.85.61,1.42-.13,4.72-1.48,8.82-4.06,12.28-2.58,3.46-6.09,6.11-10.53,7.93-4.44,1.83-9.46,2.74-15.06,2.74Z"/>
    <path fill="#ffffff" d="m367.96,157.43h-13.32c-1.76,0-3.02-.82-3.78-2.46l-9.63-18.89c-.57-1.01-1.42-1.51-2.55-1.51h-12.37c1.57,0,2.82.55,3.73,1.65.91,1.1,1.37,2.22,1.37,3.35v15.58c0,.69-.22,1.23-.66,1.61-.44.44-1.01.66-1.7.66h-12.94c-.63,0-1.18-.24-1.65-.71-.47-.47-.71-.99-.71-1.56v-55.34c0-2.33.82-4.27,2.46-5.81,1.64-1.54,3.56-2.31,5.76-2.31h20.02c3.53,0,6.88.38,10.06,1.13,3.18.76,5.98,1.98,8.41,3.68,2.42,1.7,4.36,3.92,5.81,6.66,1.45,2.74,2.17,6.09,2.17,10.06s-.85,7.18-2.55,10.2c-1.7,3.02-4.22,5.48-7.56,7.37-.5.32-.77.69-.8,1.13-.03.44.05.79.24,1.04l11.9,21.53c.19.38.28.72.28,1.04,0,.51-.21.94-.61,1.32-.41.38-.87.57-1.37.57Zm-17.75-44.29c0-2.58-.77-4.55-2.31-5.9-1.54-1.35-3.54-2.03-6-2.03h-16.24c1.57,0,2.83.54,3.78,1.61.94,1.07,1.42,2.2,1.42,3.4v7.65c0,.76.27,1.42.8,1.98.53.57,1.21.85,2.03.85h8.22c2.46,0,4.45-.61,6-1.84,1.54-1.23,2.31-3.13,2.31-5.71Z"/>
    <path fill="#ffffff" d="m379.38,155.07v-55.25c0-2.39.82-4.36,2.46-5.9,1.64-1.54,3.56-2.31,5.76-2.31h38.53c.69,0,1.27.24,1.75.71.47.47.71,1.05.71,1.75v9.35c0,.69-.22,1.23-.66,1.61-.44.44-1.04.66-1.79.66h-34.85c1.51,0,2.75.54,3.73,1.61.98,1.07,1.46,2.24,1.46,3.49v3.97c0,.69.24,1.35.71,1.98.47.63,1.18.94,2.13.94h20.59c.69,0,1.27.24,1.75.71.47.47.71,1.05.71,1.75v8.5c0,.69-.24,1.27-.71,1.75s-1.05.71-1.75.71h-28.62c1.45,0,2.68.51,3.68,1.51,1.01,1.01,1.51,2.14,1.51,3.4v4.44c0,.69.25,1.35.76,1.98.5.63,1.2.94,2.08.94h27.58c1.64,0,2.46.82,2.46,2.46v9.26c0,.76-.24,1.34-.71,1.75-.47.41-1.05.61-1.75.61h-45.14c-.63,0-1.18-.24-1.65-.71-.47-.47-.71-1.02-.71-1.65Z"/>
    <path fill="#ffffff" d="m434.82,157.05c-.38-.5-.57-.98-.57-1.42s.03-.72.09-.85l21.91-60.25c.69-1.83,1.95-2.74,3.78-2.74h14.64c1.83,0,3.08.91,3.78,2.74l21.91,60.25c.06.13.09.41.09.85,0,.51-.21.96-.61,1.37s-.87.61-1.37.61h-12.18c-1.57,0-2.64-.69-3.21-2.08l-4.91-13.32c-2.27.88-4.57,1.61-6.89,2.17-2.33.57-4.58.99-6.75,1.27-2.17.28-4.2.47-6.09.57-1.89.09-3.53.14-4.91.14h-2.22c-.6,0-1.05-.03-1.37-.09,1.13.19,2.06.82,2.79,1.89.72,1.07.8,2.33.24,3.78l-1.32,3.59c-.57,1.39-1.64,2.08-3.21,2.08h-12.18c-.44,0-.91-.19-1.42-.57Zm23.99-24.18c1.76-.13,3.59-.35,5.48-.66,1.64-.25,3.35-.61,5.15-1.09,1.79-.47,3.51-1.15,5.15-2.03l-7.27-20.78-8.5,24.55Z"/>
    <path fill="#ffffff" d="m557.12,91.51c.69,0,1.27.24,1.75.71s.71,1.02.71,1.65v10.58c0,.69-.24,1.26-.71,1.7-.47.44-1.05.66-1.75.66h-21.91c1.38,0,2.63.51,3.73,1.51,1.1,1.01,1.65,2.14,1.65,3.4v43.25c0,.69-.25,1.23-.76,1.61-.44.44-1.01.66-1.7.66h-13.13c-.69,0-1.26-.22-1.7-.66-.51-.38-.76-.91-.76-1.61v-45.33c0-.88-.28-1.57-.85-2.08-.57-.5-1.23-.76-1.98-.76h-13.69c-.63,0-1.2-.22-1.7-.66-.51-.44-.76-1.01-.76-1.7v-4.82c0-1.19.24-2.3.71-3.31.47-1.01,1.1-1.87,1.89-2.6.79-.72,1.67-1.27,2.64-1.65.98-.38,1.97-.57,2.97-.57h45.33Z"/>
    <path fill="#ffffff" d="m567.88,155.07v-55.25c0-2.39.82-4.36,2.46-5.9,1.64-1.54,3.56-2.31,5.76-2.31h7.55c.76,0,1.32.22,1.7.66.44.44.66,1.01.66,1.7v61.1c0,.63-.22,1.17-.66,1.61-.38.5-.94.76-1.7.76h-13.41c-.63,0-1.18-.24-1.65-.71-.47-.47-.71-1.02-.71-1.65Z"/>
    <path fill="#ffffff" d="m654.2,91.51c.5,0,.96.19,1.37.57.41.38.61.82.61,1.32,0,.44-.03.73-.09.85l-19.08,60.25c-.19.69-.6,1.35-1.23,1.98-.57.5-1.45.76-2.64.76h-15.11c-1.2,0-2.08-.25-2.64-.76-.63-.57-1.07-1.23-1.32-1.98l-18.98-60.25-.19-.85c0-.5.19-.94.57-1.32.44-.38.94-.57,1.51-.57h12.28c1.01,0,1.79.25,2.36.76.57.57.94,1.13,1.13,1.7l12.37,40.99c0,.25.16.38.47.38.25,0,.38-.13.38-.38l12.47-40.99c.25-.82.69-1.43,1.32-1.84.63-.41,1.35-.61,2.17-.61h12.28Z"/>
    <path fill="#ffffff" d="m664.87,155.07v-55.25c0-2.39.82-4.36,2.45-5.9,1.64-1.54,3.56-2.31,5.76-2.31h38.53c.69,0,1.27.24,1.75.71.47.47.71,1.05.71,1.75v9.35c0,.69-.22,1.23-.66,1.61-.44.44-1.04.66-1.79.66h-34.85c1.51,0,2.75.54,3.73,1.61.98,1.07,1.46,2.24,1.46,3.49v3.97c0,.69.24,1.35.71,1.98.47.63,1.18.94,2.13.94h20.59c.69,0,1.27.24,1.75.71.47.47.71,1.05.71,1.75v8.5c0,.69-.24,1.27-.71,1.75-.47.47-1.05.71-1.75.71h-28.62c1.45,0,2.68.51,3.68,1.51,1.01,1.01,1.51,2.14,1.51,3.4v4.44c0,.69.25,1.35.75,1.98.5.63,1.2.94,2.08.94h27.58c1.64,0,2.46.82,2.46,2.46v9.26c0,.76-.24,1.34-.71,1.75-.47.41-1.06.61-1.75.61h-45.14c-.63,0-1.18-.24-1.65-.71-.47-.47-.71-1.02-.71-1.65Z"/>
    <path fill="#ffffff" d="m738.81,140.33c.69,0,1.26.22,1.7.66.44.57.66,1.17.66,1.79v12.37c0,.57-.22,1.13-.66,1.7-.44.44-1.01.66-1.7.66h-12.47c-.69,0-1.28-.22-1.75-.66-.47-.44-.71-1.01-.71-1.7v-6.99c0-1.01.25-1.98.76-2.93.5-.94,1.15-1.78,1.94-2.5.79-.72,1.68-1.31,2.69-1.75,1.01-.44,2.01-.66,3.02-.66h6.52Z"/>
    <path fill="#ffffff" d="m772.34,154.97v-55.25c0-1.45.27-2.68.8-3.68.53-1.01,1.21-1.86,2.03-2.55.82-.69,1.71-1.2,2.69-1.51.97-.31,1.87-.47,2.69-.47h23.23c3.21,0,6.23.3,9.07.9,2.83.6,5.32,1.62,7.46,3.07,2.14,1.45,3.84,3.39,5.1,5.81,1.26,2.42,1.89,5.43,1.89,9.02,0,2.71-.68,5.16-2.03,7.37-1.35,2.2-3.23,3.97-5.62,5.29,2.83,1.13,5.05,3.07,6.66,5.81,1.61,2.74,2.41,5.59,2.41,8.55,0,3.65-.65,6.74-1.94,9.26-1.29,2.52-3.04,4.58-5.24,6.19-2.2,1.61-4.77,2.77-7.7,3.49-2.93.72-6.03,1.09-9.3,1.09h-29.84c-.63,0-1.18-.24-1.65-.71-.47-.47-.71-1.02-.71-1.65Zm29.47-37.4c2.14,0,3.87-.58,5.19-1.75,1.32-1.16,1.98-2.85,1.98-5.05s-.68-3.86-2.03-4.96c-1.35-1.1-3.07-1.65-5.15-1.65h-17c1.45,0,2.68.52,3.68,1.56,1.01,1.04,1.51,2.19,1.51,3.45v5.67c0,.57.25,1.17.75,1.79.5.63,1.2.94,2.08.94h8.97Zm.85,27.01c2.27,0,4.11-.63,5.52-1.89,1.42-1.26,2.12-3.05,2.12-5.38s-.72-4.08-2.17-5.43c-1.45-1.35-3.27-2.03-5.48-2.03h-17.85c1.45,0,2.68.52,3.68,1.56,1.01,1.04,1.51,2.19,1.51,3.45v6.89c0,.63.24,1.26.71,1.89.47.63,1.18.94,2.13.94h9.82Z"/>
    <path fill="#ffffff" d="m839.2,155.07v-55.25c0-2.39.82-4.36,2.45-5.9,1.64-1.54,3.56-2.31,5.76-2.31h38.53c.69,0,1.27.24,1.75.71.47.47.71,1.05.71,1.75v9.35c0,.69-.22,1.23-.66,1.61-.44.44-1.04.66-1.79.66h-34.85c1.51,0,2.75.54,3.73,1.61.98,1.07,1.46,2.24,1.46,3.49v3.97c0,.69.24,1.35.71,1.98.47.63,1.18.94,2.13.94h20.59c.69,0,1.27.24,1.75.71.47.47.71,1.05.71,1.75v8.5c0,.69-.24,1.27-.71,1.75-.47.47-1.05.71-1.75.71h-28.62c1.45,0,2.68.51,3.68,1.51,1.01,1.01,1.51,2.14,1.51,3.4v4.44c0,.69.25,1.35.75,1.98.5.63,1.2.94,2.08.94h27.58c1.64,0,2.46.82,2.46,2.46v9.26c0,.76-.24,1.34-.71,1.75-.47.41-1.06.61-1.75.61h-45.14c-.63,0-1.18-.24-1.65-.71-.47-.47-.71-1.02-.71-1.65Z"/>
    <path fill="#ffffff" d="m919.75,154.97v-55.25c0-1.19.24-2.3.71-3.31.47-1.01,1.09-1.87,1.84-2.6.76-.72,1.64-1.29,2.64-1.7,1.01-.41,2.01-.61,3.02-.61h37.87c.63,0,1.2.25,1.7.76.5.5.75,1.07.75,1.7v10.01c0,.69-.25,1.23-.75,1.61-.44.44-1.01.66-1.7.66h-34c1.38,0,2.6.5,3.64,1.51,1.04,1.01,1.56,2.2,1.56,3.59v8.03h22.66c1.64,0,2.46.82,2.46,2.46v9.92c0,.76-.22,1.34-.66,1.75-.44.41-1.04.61-1.79.61h-27.86c1.26,0,2.44.47,3.54,1.42,1.1.94,1.65,2.14,1.65,3.59v15.87c0,.69-.22,1.26-.66,1.7-.38.44-.94.66-1.7.66h-12.56c-.69,0-1.26-.22-1.7-.66-.44-.44-.66-1.01-.66-1.7Z"/>
    <path fill="#ffffff" d="m977.83,132.59v-32.68c0-1.32.27-2.49.8-3.49.53-1.01,1.19-1.86,1.98-2.55.79-.69,1.67-1.21,2.64-1.56.97-.35,1.9-.52,2.79-.52h7.08c.69,0,1.27.22,1.75.66.47.44.71,1.01.71,1.7v38.25c0,3.59.83,6.42,2.5,8.5,1.67,2.08,4.39,3.12,8.17,3.12s6.5-1.04,8.17-3.12c1.67-2.08,2.5-4.91,2.5-8.5v-32.58c0-1.32.27-2.49.8-3.49.53-1.01,1.21-1.86,2.03-2.55.82-.69,1.7-1.2,2.64-1.51.94-.31,1.86-.47,2.74-.47h7.08c.69,0,1.28.22,1.75.66.47.44.71,1.01.71,1.7v38.44c0,4.47-.68,8.33-2.03,11.57-1.35,3.24-3.26,5.92-5.71,8.03-2.46,2.11-5.43,3.68-8.92,4.72-3.49,1.04-7.38,1.56-11.66,1.56s-8.09-.5-11.62-1.51c-3.53-1.01-6.53-2.56-9.02-4.67-2.49-2.11-4.42-4.8-5.81-8.07-1.38-3.27-2.08-7.14-2.08-11.62Z"/>
    <path fill="#ffffff" d="m1047.05,154.97v-55.25c0-2.2.79-4.12,2.36-5.76,1.57-1.64,3.52-2.46,5.85-2.46h3.12c.69,0,1.51.14,2.45.42.94.28,1.92,1.12,2.93,2.5,3.71,5.79,7.05,11.02,10.01,15.68,1.83,2.83,3.26,5.08,4.3,6.75,1.04,1.67,2.03,3.21,2.97,4.63.94,1.42,1.73,2.63,2.36,3.64.63,1.01,1.01,1.61,1.13,1.79,0,.13.12.19.38.19.31,0,.47-.16.47-.47v-26.92c0-2.46.85-4.44,2.55-5.95s3.62-2.27,5.76-2.27h6.04c.69,0,1.26.22,1.7.66.44.57.66,1.17.66,1.79v60.91c0,.57-.22,1.13-.66,1.7-.5.5-1.07.76-1.7.76h-10.67c-1.39,0-2.46-.6-3.21-1.79-3.78-5.79-7.18-10.99-10.2-15.58-1.83-2.77-3.27-4.99-4.34-6.66-1.07-1.67-2.08-3.21-3.02-4.63-.94-1.42-1.73-2.61-2.36-3.59-.63-.98-1.01-1.56-1.13-1.75-.19-.19-.35-.28-.47-.28-.31,0-.47.16-.47.47v31.45c0,.69-.25,1.26-.75,1.7-.51.44-1.07.66-1.7.66h-11.99c-.57,0-1.1-.25-1.61-.76-.51-.5-.75-1.04-.75-1.61Z"/>
    <path fill="#ffffff" d="m1128.18,140.33c.69,0,1.26.22,1.7.66.44.57.66,1.17.66,1.79v12.37c0,.57-.22,1.13-.66,1.7-.44.44-1.01.66-1.7.66h-12.47c-.69,0-1.28-.22-1.75-.66-.47-.44-.71-1.01-.71-1.7v-6.99c0-1.01.25-1.98.76-2.93.5-.94,1.15-1.78,1.94-2.5.79-.72,1.68-1.31,2.69-1.75,1.01-.44,2.01-.66,3.02-.66h6.52Z"/>
    <path fill="#ffffff" d="m215.69,303.17v-55.25c0-1.45.27-2.68.8-3.68.53-1.01,1.21-1.86,2.03-2.55.82-.69,1.71-1.2,2.69-1.51.98-.31,1.87-.47,2.69-.47h23.23c3.21,0,6.23.3,9.07.9,2.83.6,5.32,1.62,7.46,3.07,2.14,1.45,3.84,3.39,5.1,5.81,1.26,2.42,1.89,5.43,1.89,9.02,0,2.71-.68,5.16-2.03,7.37-1.35,2.2-3.23,3.97-5.62,5.29,2.83,1.13,5.05,3.07,6.66,5.81,1.61,2.74,2.41,5.59,2.41,8.55,0,3.65-.65,6.74-1.94,9.26-1.29,2.52-3.04,4.58-5.24,6.19-2.2,1.61-4.77,2.77-7.7,3.49-2.93.72-6.03,1.09-9.3,1.09h-29.84c-.63,0-1.18-.24-1.65-.71-.47-.47-.71-1.02-.71-1.65Zm29.47-37.4c2.14,0,3.87-.58,5.19-1.75,1.32-1.16,1.98-2.85,1.98-5.05s-.68-3.86-2.03-4.96c-1.35-1.1-3.07-1.65-5.15-1.65h-17c1.45,0,2.68.52,3.68,1.56,1.01,1.04,1.51,2.19,1.51,3.45v5.67c0,.57.25,1.17.76,1.79.5.63,1.19.94,2.08.94h8.97Zm.85,27.01c2.27,0,4.11-.63,5.52-1.89,1.42-1.26,2.12-3.05,2.12-5.38s-.72-4.08-2.17-5.43c-1.45-1.35-3.27-2.03-5.48-2.03h-17.85c1.45,0,2.68.52,3.68,1.56,1.01,1.04,1.51,2.19,1.51,3.45v6.89c0,.63.24,1.26.71,1.89.47.63,1.18.94,2.12.94h9.82Z"/>
    <path fill="#ffffff" d="m282.55,303.26v-55.25c0-2.39.82-4.36,2.46-5.9,1.64-1.54,3.56-2.31,5.76-2.31h38.53c.69,0,1.27.24,1.75.71.47.47.71,1.05.71,1.75v9.35c0,.69-.22,1.23-.66,1.61-.44.44-1.04.66-1.79.66h-34.85c1.51,0,2.75.54,3.73,1.61.98,1.07,1.46,2.24,1.46,3.49v3.97c0,.69.24,1.35.71,1.98.47.63,1.18.94,2.13.94h20.59c.69,0,1.27.24,1.75.71.47.47.71,1.05.71,1.75v8.5c0,.69-.24,1.27-.71,1.75s-1.05.71-1.75.71h-28.62c1.45,0,2.68.51,3.68,1.51,1.01,1.01,1.51,2.14,1.51,3.4v4.44c0,.69.25,1.35.76,1.98.5.63,1.2.94,2.08.94h27.58c1.64,0,2.46.82,2.46,2.46v9.26c0,.76-.24,1.34-.71,1.75-.47.41-1.05.61-1.75.61h-45.14c-.63,0-1.18-.24-1.65-.71-.47-.47-.71-1.02-.71-1.65Z"/>
    <path fill="#ffffff" d="m1014.13,303.17v-6.52c0-1.19.27-2.28.8-3.26.53-.98,1.23-1.83,2.08-2.55.85-.72,1.76-1.29,2.74-1.7.97-.41,1.94-.61,2.88-.61h6.04c.63,0,1.18.27,1.65.8.47.54.71,1.09.71,1.65v12.18c0,.57-.22,1.1-.66,1.61-.44.44-1.01.66-1.7.66h-12.18c-.57,0-1.1-.22-1.6-.66-.51-.44-.76-.98-.76-1.61Zm14.17-18.98h-11.43c-.63,0-1.2-.22-1.7-.66-.51-.44-.76-1.01-.76-1.7v-33.9c0-1.13.24-2.19.71-3.16.47-.98,1.1-1.84,1.89-2.6.79-.76,1.68-1.35,2.69-1.79,1.01-.44,2.04-.66,3.12-.66h5.48c.69,0,1.26.22,1.7.66.5.44.75.98.75,1.61v39.85c0,.69-.25,1.26-.75,1.7-.51.44-1.07.66-1.7.66Z"/>
  </g>
  <polyline class="cls-2" points="2.5 153.6 2.5 2.5 153.6 2.5"/>
  <polyline class="cls-2" points="1205.5 237.87 1205.5 388.97 1054.4 388.97"/>
  <path class="cls-1" d="m399.18,196.55c2.09,14.86-.4,29.81-4.23,44.1-7.5,28.37-16.23,56.39-28.4,83.23-3.1,6.72-6.42,13.37-10.23,19.83-3.86,6.42-8.04,12.79-13.63,18.35-1.44,1.81-4.18,2.21-5.86.48-1.22-1.22-1.43-3.07-.63-4.51,4.35-12.39,9.31-24.38,14.63-36.33,20.99-46.8,82.68-167.92,146.64-142.48,12.36,4.54,19.27,16.96,17.61,29.75-2.92,22.43-25.51,41.73-42.4,54.66-20.93,15.68-43.91,28.64-67.33,40.01-.63.3-1.38.04-1.69-.59-.27-.56-.08-1.23.41-1.58,14.1-9.97,28.08-20.02,41.45-30.66,13.07-10.47,26.08-21.72,36.98-34.32,5.32-6.19,10.09-12.84,13.02-19.54,2.88-6.37,4.46-14.6-1.44-18.9-24.51-12.87-53.23,17.4-68.39,34.42-22.03,25.39-40.22,54.69-57.35,83.73-8.62,14.76-16.98,29.81-25.03,44.89,0,0-6.49-4.03-6.49-4.03,3.74-5.6,6.82-11.95,9.64-18.41,8.48-19.69,15.08-40.12,21.74-60.58,4.42-13.71,8.66-27.51,12.9-41.33,4.19-14.09,9.42-28.06,18.09-40.18h0Z"/>
  <path class="cls-1" d="m516.23,269.45c-10.03-4.02-17.51,6.03-22.14,13.65-2.78,4.5-5.5,9.46-7.19,14.39-.49,1.4-1.01,3.35-.85,4.56.03.16.06.23.03.1-.03-.14-.18-.48-.53-.81-.84-.77-1.89-.89-2.83-.28,0,0-.13.09-.13.09-.01.01.05-.03.07-.05l.72-.51c4.94-3.55,9.63-7.41,14.26-11.45,6.78-5.97,13.26-12.29,21.77-16.95.62-.8,1.77-.94,2.57-.32.77.59.81,1.55.54,2.38-1.2,5.36-2.64,10.68-3.51,15.79-.41,3.07-1.16,6.83.11,9.11,0,.05.06.04.08.08,0,.06.14.03.2.1.29.1.74.12,1.1.12,4.7.14,9.04-1.48,13.49-3.15,5.01-1.95,9.98-4.38,15.17-6.77-6.13,8.44-22.45,21.16-33.51,16.74-10.98-6.04-1.73-26.15,3.45-33.59,0,0,3.11,2.06,3.11,2.06-6.18,13.29-16.96,22.75-27.96,31.87-1.38,1.09-2.97,2.21-4.43,3.22-2.09,1.64-4.83,2.4-7.4,1.86-6.65-1.26-8.38-8.56-6.57-14.03,1.8-6.25,5.4-11.54,9.09-16.66,2.93-3.97,6.31-7.74,10.27-10.74,1.54-1.08,3.29-2.18,5.01-2.94.56-.28,1.2-.54,1.83-.73,4.68-1.76,11.02-1.22,14.21,2.85h0Z"/>
  <path class="cls-1" d="m571.68,269.21c-5.06,7.13-10.05,14.38-14.83,21.69-2.38,3.66-4.71,7.35-6.89,11.06-1.72,3.08-3.74,6.22-4.68,9.5.17-1.73-1.56-3.49-3.3-3.59-.34,0-.66-.02-.98.08,0,0,.76-.42.76-.42l1.14-.74c12.5-9.5,23.23-21.1,34.97-31.64,4.84-4.2,9.32-8.98,15.04-12.31,1.55-.74,2.91-.73,4.67-.96,4.65-.59,8.08,2.75,7.24,7.47-.98,5.06-3.52,9.05-5.86,13.4-2.24,3.92-4.61,7.69-7.04,11.42-1.6,2.52-3.24,5.05-4,7.76-.21.71,0,1.17-.28.68-.16-.19-.35-.23-.25-.17.07.05.36.11.72.11,2.79-.03,5.71-1.16,8.47-2.18,7.96-3.09,15.72-7.36,23.32-11.64.77-.46,1.78-.19,2.22.6.41.72.19,1.63-.47,2.1-3.64,2.6-7.33,5.04-11.14,7.36-3.81,2.32-7.68,4.56-11.81,6.52-3.31,1.48-6.65,3-10.5,3.24-3.2.3-6.54-1.8-6.7-5.4-.17-4.69,2.45-8.8,4.52-12.62,2.18-3.79,4.31-7.6,6.31-11.41,1.69-3.44,3.77-7.17,4.45-10.83.06-.27-.06-.38.06.1,0,0,.07.19.07.19.23.64.93,1.29,1.59,1.47.42.1.21.04-.11.09-.62.08-1.61.27-2.39.37-.17.02.06.01.12,0,.18-.02.38-.07.52-.16-.12.09-.47.31-.83.57-10.78,9-20.36,19.58-30.94,29.02-5.45,4.92-10.9,10-17.08,14.15-1.76,1.07-3.62,2.33-5.9,2.44-2.48.15-4.91-1.9-5.16-4.36-.36-3.11,1.37-5.99,2.64-8.57,3.23-6,6.99-11.6,10.75-17.2,5-7.36,10.11-14.56,15.38-21.72,1.25-1.7,3.65-2.07,5.36-.82,1.7,1.25,2.07,3.63.84,5.33h0Z"/>
  <path class="cls-1" d="m655.87,268.34c-3.02-2.82-6.31-.66-8.64,1.96-2.39,2.59-4.57,5.86-6.54,8.84-4.01,6.34-8.58,13.01-11.58,19.61-.89,2.01-1.77,4.19-1.83,5.97,0,.04,0-.09-.19-.45-.19-.55-1.38-1.34-1.86-1.26,2.76-.53,5.51-2.8,7.46-5,20.21-22.75,42.04-46.27,61.19-69.89,3.9-4.63,7.57-9.44,10.07-15.01.85-1.89,1.63-3.84,2.12-6.02,2.01-2.66,5.79-3.19,8.45-1.18,2.6,1.95,3.11,5.55,1.39,8.19-17.75,31.95-38.09,62.64-53.96,95.64-5.08,11.03-10.49,22.2-11.99,34.4-.23-3.07-.08-6.2.29-9.29,2.09-15.42,7.57-30.15,13.18-44.58,6.96-17.21,14.8-34.09,23.4-50.52,5.8-10.96,11.87-21.66,18.76-32.01,0,0,9.85,7.02,9.85,7.02-2.04.91-3.8,2.06-5.49,3.26-4.98,3.55-8.97,8.08-12.75,12.81-5.11,6.16-10.09,12.41-15.05,18.68-13.62,17.28-28.38,37.6-42.13,54.8-3.75,4.43-8.74,8.54-14.96,8.77-6.45-.03-9.07-6.31-7.58-11.88,1.6-6.67,5.06-12.23,8.48-17.75,4.59-7.07,10.06-14.17,17.75-18.18,3.98-2.27,11.19-2.7,12.16,3.05h0Z"/>
  <path class="cls-1" d="m729.93,269.23c-4.32.82-7.93,3.58-11.39,6.11-3.36,2.56-6.52,5.47-9.3,8.78-2.88,3.34-5.7,6.9-8.22,10.4-1.64,2.39-3.46,4.93-4.22,7.46-.06.24-.02.39-.03.15,0-.23-.1-.44-.2-.69-.14-.32-.42-.65-.67-.85-.52-.4-.75-.34-.58-.35.11.01.58.01.68-.03.07-.05.04.01.16-.05,2.34-.87,4.33-2.34,6.56-3.97,8.82-6.59,16.56-14.91,24.9-22.17.76-.67,2.96-2.63,3.71-3.28.75-.71,1.58-1.31,2.33-1.9,1.03-.8,2.52-.61,3.32.43.65.85.64,2,.05,2.82-2.81,7.24-5.53,14.89-6.4,22.61-.41,6.11.47,8.15,6.57,5.13,7.17-3.29,14.55-6.71,20.79-11.56.46-.45,1.21-.42,1.63.08.38.45.34,1.13-.09,1.53-1.11,1.03-2.16,1.82-3.29,2.64-3.32,2.4-6.84,4.51-10.4,6.51-3.83,1.96-7.08,4.16-11.28,5.5-15.12,2.88-4.67-27.35-2.37-34.32,0,0,0,0,0,0,0,0,4.65,2.26,4.65,2.26-.33.74-.64,1.31-.95,1.85-4.52,7.55-10.69,13.87-17.09,19.84-3.42,3.16-6.91,6.25-10.74,9.15-3.47,2.38-6.37,4.88-11.14,5.65-2.94.37-6.64-.5-8.2-3.71-3.78-7.73,10.34-20.86,15.27-26.08,5.2-5,11.26-9.88,18.65-10.95,2.41-.28,5.16-.38,7.28.97h0Z"/>
  <path class="cls-1" d="m806.65,280.6c2.32-2.3,4.7-4.66,6.04-7.5.2-.51.35-.99.22-1.15-.04.01.01.17-.04.14-.3-.1-1.22-.32-1.74-.31-2.26-.13-4.56-.1-6.83.11-10.01,1.09-21.06,3.25-29,9.47-1.64,1.35-3.2,3.46-4.23,5.19-.31.53-.63,1.25-.62,1.68.02.04.02-.09.03-.11,3.59,3.19,8.85,4.57,13.43,6.61,5.69,2.45,10.9,4.4,16.1,8.49,1.38,1.18,2.88,2.57,4.08,4.91,1.93,3.57,1.14,8.46-1.4,11.5-1.59,2.08-3.86,3.87-5.86,5.3-7.58,5.15-15.65,8.66-24.57,10.94-6.04,1.37-13.59,2.37-19.29-1.3-3.57-2.22-5.04-6.86-3.19-10.62,2.54-5.09,6.82-7.65,10.99-10.42,4.86-3.1,10.29-5.53,15.67-7.59,10.35-4.16,20.79-8.11,31.24-12.01,10.54-3.73,20.99-7.74,31.83-10.57-4.32,2.01-10.61,5.35-14.94,7.54-14.44,7.4-30.35,15.4-44.84,22.46-4.73,2.21-9.67,4.8-13.91,7.84-2.59,1.92-5.72,4.1-7.03,6.58-.02.1.07-.01.05-.57-.01-.51-.39-1.01-.43-1.07-.07-.04,0-.03,0-.03.25.13.54.24.82.35,3.37.82,6.9.06,10.48-.83,4.86-1.28,9.78-3.28,14.36-5.68,3.46-1.84,6.97-3.81,9.65-6.5.24-.25.53-.62.66-.9.04-.08,0,.03,0,.17,0,.14.05.22.03.15-1.46-2.14-4.56-3.64-7.31-5.16-4.89-2.54-9.92-4.44-15.05-6.94-6.47-2.97-13.79-8.29-10.35-16.54,3.08-6.92,9.64-11.93,16.48-14.33,10.6-3.75,21.59-4.95,32.6-3.49,3.05.37,7.05,1.93,6.68,5.79-.53,3.56-3.27,5.72-5.71,7.87-1.13.93-2.27,1.76-3.5,2.57-.6.39-1.41.23-1.81-.38-.36-.55-.25-1.27.22-1.69h0Z"/>
  <path class="cls-1" d="m791.83,234.55c30.95-2.22,62.86-2.38,93.89-1.79,10.43.24,20.86.61,31.3,1.36,1.91.14,3.35,1.8,3.21,3.71-.12,1.74-1.52,3.09-3.21,3.21-30.95,2.07-62.87,2.05-93.89,1.29-10.43-.3-20.86-.72-31.3-1.52-3.8-.34-3.85-5.9,0-6.26h0Z"/>
  <path class="cls-1" d="m905.66,199.66c-14.38,30.08-30.85,59.16-47.11,88.22-9.01,15.75-17.15,32.19-23.66,49.17-1.33,3.42-2.73,7.91-3,11.15-.28-.33-.73-.62-1.19-.58-.07,0-.13.04-.07.04,1.01-.02,2.75-1.16,3.79-1.83,1.16-.75,2.7-.41,3.45.74.65,1.01.48,2.31-.34,3.13-1.67,1.6-3.36,3.2-5.77,3.85-7.59,1.33-6.94-8.45-6.03-13.19,2.42-13.2,7.16-25.64,12.26-37.91,4.37-10.36,9.8-20.41,15.11-30.25,14.35-26.07,29.43-51.63,46.26-76.2,2.55-3.56,8.17-.49,6.31,3.65h0Z"/>
  <path class="cls-1" d="m902.91,263.31c-3.78,6.27-7.63,12.65-11.3,18.99-3.56,6.56-8.05,13.38-9.86,20.54-.04.17.01.14-.11-.22-.15-.64-1.01-1.61-1.7-1.89-.65-.27-.94-.34-1.39-.26-.02,0,.07-.01.1-.02.95-.18,2.1-.44,3.04-.75,10-3.39,19.57-9.45,28.67-14.92,2.95-1.86,6.01,2.17,3.41,4.5-8.88,7.57-18.02,14.63-29.01,19.21-.92.33-2.15.82-3.12,1.02-.85.22-1.74.49-2.63.51-4.43.31-7.39-3.64-7.03-7.69.21-3.68,1.48-6.66,2.7-9.76,2.25-5.37,5.01-10.5,7.87-15.49,3.79-6.6,7.86-12.92,12.26-19.14,1.55-2.19,4.58-2.71,6.78-1.16,2.12,1.49,2.67,4.38,1.32,6.54h0Z"/>
  <path class="cls-1" d="m936.97,286.49c2.45-1.62,5.94-3.77,6.81-6.3-.01-.12-.09-.03-.11.08,0,.06-.04.08-.03.1-.06,0-.04-.02-.14-.08-.87-.85-1.75-.91-3.26-.63-6.55,1.54-12.85,6.75-16.6,11.97-.92,1.46-2.04,3.33-1.78,4.79.37.81.82,1.22,1.84,1.83,1.47.87,3.66,1.51,6,1.79,7.64.92,15.4-.5,23.03-2.41,10.48-2.7,20.76-6.9,31.03-11.44.73-.32,1.59,0,1.91.74.27.62.08,1.32-.43,1.72-9.07,7.11-19.09,12.97-29.93,17.09-8.37,3.11-17.51,5.35-26.72,4.65-10.72-.59-21.23-8.18-16.49-20.12,4.23-10.72,21.35-23.64,33.27-19.64,4.72,1.7,8.57,7.37,6.48,12.35-2.17,5.15-7.53,7.71-12.24,9.51-3.88,1.32-6.2-4.07-2.64-6.01h0Z"/>
  <path class="cls-1" d="m899.57,247.91l5.51-6.72c.79-.96,2.21-1.1,3.17-.31.97.79,1.1,2.24.29,3.19,0,0-5.62,6.63-5.62,6.63-1.87,2.14-5.12-.56-3.35-2.79h0Z"/>
</svg>